<?xml version="1.0" encoding="UTF-8"?>
<svg id="Layer_1" data-name="Layer 1" xmlns="http://www.w3.org/2000/svg" viewBox="0 0 750 900">
  <defs>
    <style>
      .cls-1 {
        fill: #942136;
        stroke-width: 0px;
      }
    </style>
  </defs>
  <g>
    <path class="cls-1" d="M82.74,742.65v57.24h-22.22v-132.75h22.22v56.11h27.87v-56.11h22.03v132.75h-22.03v-57.24h-27.87Z"/>
    <path class="cls-1" d="M234.13,667.14v21.47h-39.73v34.65h29.56v19.39h-29.56v35.96h39.73v21.28h-61.76v-132.75h61.76Z"/>
    <path class="cls-1" d="M327.9,778.61v21.28h-58.18v-132.75h22.22v111.47h35.96Z"/>
    <path class="cls-1" d="M417.71,778.61v21.28h-58.18v-132.75h22.22v111.47h35.96Z"/>
    <path class="cls-1" d="M471.94,667.14v132.75h-22.03v-132.75h22.03Z"/>
    <path class="cls-1" d="M571.92,790.85c-6.9,7.16-15.75,10.73-26.55,10.73s-19.61-3.58-26.45-10.73c-6.84-7.16-10.26-16.32-10.26-27.49v-59.5c0-11.3,3.42-20.52,10.26-27.68,6.84-7.16,15.66-10.73,26.45-10.73s19.64,3.58,26.55,10.73c6.9,7.16,10.36,16.38,10.36,27.68v59.5c0,11.17-3.45,20.34-10.36,27.49ZM545.37,686.72c-4.27,0-7.78,1.29-10.54,3.86-2.76,2.57-4.14,6.68-4.14,12.33v61.2c0,5.65,1.38,9.76,4.14,12.33,2.76,2.57,6.28,3.86,10.54,3.86s7.66-1.29,10.54-3.86c2.89-2.57,4.33-6.68,4.33-12.33v-61.2c0-5.65-1.38-9.76-4.14-12.33-2.76-2.57-6.34-3.86-10.73-3.86Z"/>
    <path class="cls-1" d="M692.62,667.33v132.56h-20.71l-31.26-77.39v77.39h-22.03v-132.75h20.71l31.07,78.52v-78.33h22.22Z"/>
  </g>
  <g>
    <path class="cls-1" d="M68.63,843.27l-3.41-11v15.16h-4.55v-27.69h4.55l4.98,16.89,4.98-16.89h4.55v27.69h-4.59v-15.24l-3.41,11.08h-3.1Z"/>
    <path class="cls-1" d="M147.14,845.55c-1.44,1.49-3.28,2.24-5.53,2.24s-4.08-.75-5.51-2.24-2.14-3.4-2.14-5.73v-12.41c0-2.36.71-4.28,2.14-5.77,1.42-1.49,3.26-2.24,5.51-2.24s4.09.75,5.53,2.24c1.44,1.49,2.16,3.42,2.16,5.77v12.41c0,2.33-.72,4.24-2.16,5.73ZM141.62,823.83c-.89,0-1.62.27-2.2.81s-.86,1.39-.86,2.57v12.77c0,1.18.29,2.04.86,2.57.58.54,1.31.8,2.2.8s1.59-.27,2.2-.8c.6-.54.9-1.39.9-2.57v-12.77c0-1.18-.29-2.04-.86-2.57-.58-.54-1.32-.81-2.23-.81Z"/>
    <path class="cls-1" d="M215.5,819.75v4.48h-4.7v23.21h-4.59v-23.21h-4.66v-4.48h13.95Z"/>
    <path class="cls-1" d="M280.72,845.55c-1.44,1.49-3.28,2.24-5.53,2.24s-4.08-.75-5.51-2.24c-1.42-1.49-2.14-3.4-2.14-5.73v-12.41c0-2.36.71-4.28,2.14-5.77,1.42-1.49,3.26-2.24,5.51-2.24s4.09.75,5.53,2.24c1.44,1.49,2.16,3.42,2.16,5.77v12.41c0,2.33-.72,4.24-2.16,5.73ZM275.2,823.83c-.89,0-1.62.27-2.19.81-.58.54-.86,1.39-.86,2.57v12.77c0,1.18.29,2.04.86,2.57.57.54,1.31.8,2.19.8s1.59-.27,2.2-.8c.6-.54.9-1.39.9-2.57v-12.77c0-1.18-.29-2.04-.86-2.57s-1.32-.81-2.23-.81Z"/>
    <path class="cls-1" d="M341.67,847.44h-4.62v-27.69h7.29c2.32,0,4.18.73,5.57,2.2,1.38,1.47,2.08,3.54,2.08,6.21v3.65c0,3.56-1.29,5.96-3.88,7.19l3.88,8.44h-5.02l-3.1-7.3h-2.2v7.3ZM343.79,824.18h-2.12v11.55h2.12c2.43,0,3.65-1.36,3.65-4.09v-3.53c0-2.62-1.21-3.93-3.65-3.93Z"/>
    <path class="cls-1" d="M415.63,840.56c0-.86-.37-1.73-1.1-2.59s-1.61-1.68-2.65-2.46c-1.03-.77-2.07-1.58-3.12-2.41-1.05-.84-1.93-1.83-2.67-2.97s-1.1-2.35-1.1-3.63c0-2.17.68-3.91,2.04-5.2s3.16-1.94,5.41-1.94,3.98.7,5.37,2.1c1.38,1.4,2.08,3.28,2.08,5.64h-4.51c0-1.15-.27-2.02-.82-2.59-.55-.58-1.27-.86-2.16-.86s-1.55.23-2.06.71c-.51.47-.76,1.11-.76,1.92,0,.76.26,1.51.78,2.24.52.73,1.18,1.38,1.96,1.94.78.56,1.63,1.2,2.53,1.91s1.74,1.41,2.53,2.1c.78.69,1.44,1.55,1.96,2.55.52,1.01.78,2.09.78,3.24,0,2.31-.67,4.14-2,5.52-1.33,1.37-3.19,2.06-5.57,2.06s-4.22-.72-5.68-2.16c-1.46-1.44-2.2-3.38-2.2-5.81h4.55c0,1.23.31,2.14.92,2.73.61.59,1.42.88,2.41.88.92,0,1.65-.26,2.22-.78.56-.52.84-1.23.84-2.12Z"/>
    <path class="cls-1" d="M478.5,847.44h-4.63v-27.69h7.25c2.3,0,4.16.74,5.57,2.22,1.41,1.48,2.12,3.54,2.12,6.19v4.08c0,2.65-.7,4.69-2.1,6.13-1.4,1.44-3.26,2.16-5.59,2.16h-2.63v6.91ZM480.62,824.18h-2.12v11.94h2.12c2.46,0,3.68-1.31,3.68-3.93v-4.01c0-2.67-1.23-4.01-3.68-4.01Z"/>
    <path class="cls-1" d="M555.25,845.55c-1.44,1.49-3.28,2.24-5.53,2.24s-4.08-.75-5.51-2.24-2.14-3.4-2.14-5.73v-12.41c0-2.36.71-4.28,2.14-5.77,1.42-1.49,3.26-2.24,5.51-2.24s4.09.75,5.53,2.24c1.44,1.49,2.16,3.42,2.16,5.77v12.41c0,2.33-.72,4.24-2.16,5.73ZM549.72,823.83c-.89,0-1.62.27-2.2.81s-.86,1.39-.86,2.57v12.77c0,1.18.29,2.04.86,2.57.58.54,1.31.8,2.2.8s1.59-.27,2.2-.8c.6-.54.9-1.39.9-2.57v-12.77c0-1.18-.29-2.04-.86-2.57-.58-.54-1.32-.81-2.23-.81Z"/>
    <path class="cls-1" d="M616.2,847.44h-4.63v-27.69h7.29c2.33,0,4.18.73,5.57,2.2,1.39,1.47,2.08,3.54,2.08,6.21v3.65c0,3.56-1.29,5.96-3.88,7.19l3.88,8.44h-5.02l-3.1-7.3h-2.2v7.3ZM618.32,824.18h-2.12v11.55h2.12c2.43,0,3.64-1.36,3.64-4.09v-3.53c0-2.62-1.21-3.93-3.64-3.93Z"/>
    <path class="cls-1" d="M692.83,819.75v4.48h-4.7v23.21h-4.59v-23.21h-4.66v-4.48h13.95Z"/>
  </g>
  <path class="cls-1" d="M139.59,61.61c-11.5,7.15-22.44,15-32.73,23.5-13.79,11.39-25.97,23.23-36.63,35.66v-59.16h69.37Z"/>
  <path class="cls-1" d="M679.76,61.61v579.74H70.22v-310.01c2.92,1.47,5.94,2.77,9.05,3.89,11.67,4.2,23.2,6.33,34.25,6.33,2.05,0,4.11-.08,6.14-.22.99,44.5,13.36,86.2,34.32,122.3.05.08.1.16.14.23l-2.42,2.33c3.9,6.3,8.77,11.88,14.75,16.86.91,1.29,1.83,2.56,2.77,3.83,20.28,27.55,45.95,50.87,75.48,68.41,1.64.99,3.29,1.95,4.95,2.89,3.68,2.61,7.53,4.42,10.99,5.94.36.16.74.32,1.1.47,4,1.99,8.06,3.87,12.18,5.64,31.03,13.43,65.27,20.85,101.23,20.85,59.38,0,114.05-20.27,157.44-54.26.34-.25.69-.52,1.03-.79,8.38,13.48,17.6,23.97,28.42,32.42,2.31,1.82,4.71,3.26,7.01,4.67.82.49,1.65,1,2.46,1.51.91.6,1.73.92,2.34,1.16l.55.22,26.72,10.97-17.56-22.93c-10.75-14.04-15.42-29.86-14.29-49.02,3.76,2.99,7.67,5.5,11.8,7.58l6.47,3.12,3.99-6.51c.09-.14.17-.3.26-.44l2.29-4.23-2.73-3.94c-5.71-8.24-7.58-17.69-5.8-29.97.22-1.51.49-3.05.82-4.64.38.58.75,1.16,1.16,1.72,3.73,5.37,8.28,9.93,13.68,13.72l11.38-10.04c-4.52-8.5-6.2-18.33-5.46-31.9.16-2.78.39-5.47.7-8.1.66-1.44,1.31-2.9,1.94-4.37,6.81-15.7,12.1-32.23,15.64-49.39,1.66.59,3.45.88,5.33.88,3.21,0,6.12-.86,8.46-1.55.66-.19,1.31-.39,1.99-.56,2.77-.7,6.4-2.72,7.9-8.35l.03-.07c2.57-6.84,4.78-14.44,6.76-23.24.69-3.07,1.68-5.4,3.09-7.28,6.2-8.22,6.63-17.3,1.23-26.26-10.27-17.13-21.12-34.22-32.28-50.82.7-1.12,1.14-2.17,1.48-2.95.08-.18.14-.36.23-.55,4.45-8.57,3.84-17.32-1.73-25.31-2.35-3.37-4.67-6.93-6.9-10.37-1.27-1.94-2.53-3.89-3.83-5.84,5.58-14.79,8.06-31.25,7.41-48.95-1.3-35.03-13.09-66.73-35.02-94.21-6.01-7.53-12.6-14.4-19.76-20.62h109.97Z"/>
  <path class="cls-1" d="M49.75,317.02v322.66h-21.57v-353.18c5.24,11.69,12.57,22.07,21.57,30.52Z"/>
  <path class="cls-1" d="M235.48,21.01c-14.33,3.61-28.91,8.41-44.13,14.47-5.58,2.24-11.08,4.59-16.47,7.1H49.75v105.64c-6.41,10-12,20.37-16.81,31.16-1.75,3.94-3.34,7.88-4.76,11.82V21.01h207.3Z"/>
  <path class="cls-1" d="M721.81,21.01v618.67h-21.57V42.57h-157.75c-9.33-5.15-19.32-9.48-29.95-12.96-16.91-5.55-34.74-8.24-54.48-8.24-6.79,0-13.96.32-21.31.99-5.14.47-10.01,1.22-14.55,2.26-1.07.25-2.07.38-3.05.38-1.44,0-2.95-.26-4.62-.81-3.52-1.13-7.08-2.2-10.66-3.18h317.94Z"/>
  <g>
    <path class="cls-1" d="M535.25,416.5c.62-8.12.58-16.24-.11-24.33-.67-7.89-2.16-15.63-4.61-23.13-.33.06-.66.11-.98.17v11.4c-6.97-19.04-15.12-37.83-10.34-59.35,1.27,11.42,2.83,17.2,5.22,19.68.17-13.9,3.95-25.51,9.72-28.94-2.05,4.45-2.09,8.92-2.06,13.4-2.34,3.23-2.55,7.14-3.05,10.82-1.95,14.65,2.05,28.21,8.25,41.27.45.97.75,2.31,2.36,1.95.84,1,1.17,2.17,1.25,3.47.69,11.61-1.7,22.71-5.64,33.6Z"/>
    <path class="cls-1" d="M555.34,310.96c-.42.87-1.03.37-1.58.2-3.59-1.2-6.98-2.84-9.72-5.5-3.44-3.36-7.31-5.5-12.25-5.34-5.22.16-10.37.8-15.45,2.09-.73.2-1.45.5-2.45-.03,4.17-3.67,9.01-5.56,14.04-7.9-2.64-1.53-5.08-2-7.51-2.41-7.28-1.2-14.59-2.11-21.52-5-10.78-4.48-14.74-13.71-10.34-24.44,1.62-3.92,4.53-7,6.61-10.62.3-.5.42.28.48.59-.55,4.42-2.41,8.54-2.8,13.06-.59,6.87,1.55,11.31,7.72,14.28,3.76,1.81,7.62,3.48,11.67,4.58,14.56,3.98,27.66,11.06,40.59,18.57-.5.81-1.3.73-1.97.89-.7.16-1.67-.03-1.86.84-.19.83.78,1.11,1.27,1.62,1.55,1.66,3.84,2.48,5.06,4.51Z"/>
    <path class="cls-1" d="M574.14,426.48c-1.19,4.09-3.37,7.64-6.03,11.9-.11-1.33-.22-1.72-.16-2.09.75-5.36,1.5-10.7,2.33-16.06.34-2.25.2-3.92-2.75-2.84-1.34.5-2.47-.06-3.64-.42-8.48-2.61-13.79-8.39-16.24-16.74-2.44-8.28-4.61-16.63-6.83-24.96-.28-1.06-.34-2.09-1.76-2.12-.75-2.39-.72-4.84-.66-7.92,4.75,10.31,9.11,20.1,13.07,30.07,1.72,4.31,3.97,8.33,7.22,11.68,5.29,5.5,9.72,5.94,14.46,1.25.94,4.55,1.2,8.95.72,13.42-.17,1.62-.77,3.3.27,4.84Z"/>
    <path class="cls-1" d="M529.74,230.94c-.08.09-.16.19-.23.28-5.5-1.94-11.14-3.5-16.92-4.28-5.87-.81-11.46-2.44-16.42-5.67-5.44-3.55-10.25-7.81-13.2-13.79.59.39,1.23.73,1.76,1.19,5.47,4.62,11.2,8.89,18.35,10.34,5.51,1.14,11.17,1.64,17.12,2.48-2.19-2.62-5.33-3.2-7.98-5.56,4.53.03,7.89,1.48,11.07,3.53-.53,1.44.37,2.3,1.22,3.22,2.23,2.44,3.9,5.25,5.22,8.26Z"/>
    <path class="cls-1" d="M457.32,303.73c-8.53,13.01-12.54,27.35-12.64,42.84-.03,5.73-.02,11.46-.03,17.2-.33-.2-.89-.36-.95-.62-2.44-10.2-3.5-20.48-1.69-30.91,1.45-8.43,4.45-16.23,9.42-23.23.41-.56,1.52-1.2.14-1.94,1.34-1.69,3.16-2.75,4.94-3.86.28.17.55.34.81.52Z"/>
    <path class="cls-1" d="M503.71,241.75c.5,5.22-.17,10.06-2.51,14.57-1.66-.5-.97-1.91-1.03-2.91-.17-2.98-.94-5.73-2.64-8.22-1.84-2.66-3.72-5.28-5.5-7.98-1.37-2.09-3.17-3.97-3.56-6.79,4.14,3.37,9.43,3.9,13.92,6.22,4.51,2.33,8.51,5.56,10.32,10.68-2.92-1.83-5.23-4.64-9-5.58Z"/>
    <path class="cls-1" d="M571.06,321.66s-.02-.02-.03-.02l.03-.05v.06Z"/>
    <path class="cls-1" d="M577.39,325.97c-.11.06-.22.09-.3.12.06-.08.16-.14.25-.19.02-.02.05-.02.06-.03.02,0-.02.09-.02.09Z"/>
    <path class="cls-1" d="M588.98,345.41c-2.25-.59-4.36-1.56-6.7-1.19-1.12-.98-2.17-2.01-3.11-3.08-.23-.27-.47-.52-.69-.78-.39-.47-.77-.94-1.12-1.42-.41-.53-.8-1.08-1.16-1.64-.2-.31-.41-.62-.59-.94-.09-.14-.19-.28-.27-.44-.16-.28-.31-.55-.47-.83-.36-.66-.7-1.34-1-2.03-.08-.14-.14-.3-.22-.45-.39-.92-.75-1.86-1.05-2.81-.34-1.06-.64-2.16-.86-3.26-.12-.53-.22-1.08-.31-1.61-.08-.55-.16-1.09-.22-1.66-.06-.53-.11-1.06-.16-1.61,1.86,1.17,3.75,2.33,5.62,3.51,0,.42-.25,1.08.39.91-.61.52.11,1.16.31,1.58,1.06,2.26,2.2,4.5,3.44,6.67,2.26,3.97,5.36,7.34,8.15,11.07Z"/>
    <path class="cls-1" d="M549.59,263.16c-4.45,3.25-11.01,2.87-14.7-.83-3.22-3.23-3.5-10.14-.56-14.28,1.95-2.75,2.67-2.73,4.86.17.05.91-.55,1.53-1,2.22-2.73,4.33-2.3,8.53,1.09,10.75,3.58,2.36,7.22,1.25,10.11-3.08,2.87,2.25,2.91,3.08.2,5.04Z"/>
  </g>
  <g>
    <path class="cls-1" d="M652.39,325.89c-10.26-17.12-20.96-33.96-32.1-50.51-2.25-3.33-3.19-6.01-.44-9.32.78-.94,1.12-2.23,1.7-3.34,2.87-5.54,2.48-10.75-1.12-15.92-4.06-5.83-7.81-11.87-11.76-17.76-1.23-1.81-1.34-3.45-.53-5.53,5.9-15.01,7.93-30.74,7.34-46.73-1.23-33.19-12.34-62.95-33.03-88.87-19.1-23.93-43.67-40.11-72.75-49.64-23.57-7.73-47.69-9.03-72.13-6.84-4.47.41-8.93,1.06-13.29,2.06-4.33,1.02-8.32.73-12.54-.62-22.34-7.18-45.3-11.32-68.71-12.65-12.2-.69-24.48-.98-36.69-.53-16.35.61-32.55,2.97-48.69,5.86-21.68,3.86-42.55,10.28-62.93,18.4-29.8,11.89-57.32,27.77-82.08,48.2-30.39,25.08-55.21,54.65-71.4,90.95-9.54,21.41-14.37,43.78-12.76,67.26,2.23,32.52,21.62,64.71,53.87,76.32,28.1,10.11,54.78,7.29,78.92-10.89,13.12-9.87,21.99-23.02,24.93-39.41,3.25-18.15-.33-34.58-14.62-47.4-8.01-7.18-17.7-11.09-28.99-13.17,6.2,5.83,10.89,11.89,14.7,18.68,9.11,16.2,7.12,33.58-5.73,46.3-9.87,9.76-22.23,12.32-35.58,10.98-20.73-2.09-32.8-17.49-36.17-35-4.7-24.37,2.36-46.14,15.68-66.23,13.71-20.71,32.69-35.69,53.89-48.04,23.46-13.68,48.9-21.84,75.61-26.27,1.44-.25,2.89-.48,4.33-.69.3-.05.61.08,1.03.14-33.93,25.93-52.75,60.04-56.51,102.45,19.07-46.59,53.07-77.17,101.06-90.86,48.31-13.78,92.61-2.84,132.62,26.9-20.63-6.7-41.56-9.72-63.18-5.73,13.74,4.44,25.33,12.17,35.57,22.35-18.24-6.43-36.64-5.58-55.04-1.41-18.45,4.17-35.17,12.15-50.36,23.82,18.9-3,37.2-2.75,54.26,8.64-24.58,4.2-45.89,13.67-62.93,31.77,19.6-5.72,39.49-7.39,59.71-4.67-9.18,1.7-18.29,3.61-27.07,6.92-22.13,8.34-40.58,21.74-55.59,39.97-.25.31-.37.72-.56,1.08.01.01.02.03.03.04-.01-.01-.02-.03-.03-.04-.25.12-.63.23-.38.57.1.13.53,0,.81-.01,0,0,0,0,0,0,11.79-3.83,23.8-5.75,36.46-4.11-35.86,10.76-59.18,37.14-71.55,52.18,9.61-3.25,18.35-7.37,26.9-12.12-2.45,4.89-5.54,9.22-8.87,13.39-3.41,4.25-6.92,8.39-10.87,12.14-3.94,3.75-8.14,7.17-12.67,10.2-4.5,2.98-9.36,5.31-14.79,7.67,18.38.66,38.52-8.9,50.34-24.8,0,0,.02-.02.02-.03,0,0-.01.02-.02.03.17.16.35.32.52.48,0,0,0,0,0,0-4.4,12.07-11.4,22.49-20.15,31.78-7.97,8.43-17.35,14.71-28.44,18.24-19.81,6.31-39.84-.69-51.75-17.98-2.34-3.39-4.5-6.9-6.14-10.71,1.75,41.55,53.32,82.02,104.37,55.37-.72,5.98-9.78,15.2-24.16,24.58,10.32-.44,25.05-6.34,32.52-17.57,2.37,13.64-2.34,36.28-18.17,48.36-23.02,17.57-45.75,12.54-67.97-2.44,6,9.7,14.43,16.99,24.27,22.71,10.07,5.84,20.96,9.26,32.61,10.11,11.54.83,22.57-1.62,33.32-5.78-12.85,12.25-28.52,15.1-46.15,13.93,33.86,13.46,85.25-.52,107.32-44.83,3.9,8.95,2.37,28.9-6.67,43.47-8.43,13.64-21.04,21.65-35.96,27.05,15.4,1.16,35.03-2.17,51.92-12.46,15.99-9.75,26.83-23.77,33.47-42.08,1.66,9.25-1.31,22.9-7.53,36.41-5.33,11.57-13.42,20.93-23.71,28.29-10.17,7.26-21.51,11.76-34.02,13.42-12.4,1.64-24.44.02-36.44-3.26,3.84,3.65,8.4,5.89,13.03,7.93,11,4.87,22.59,7.37,34.58,7.93,34.94,1.64,62.23-12.98,83.83-39.55,5.44-6.67,9.76-14.06,12.92-22.1.28-.72.16-2.34,1.47-1.86,1.12.42-.11,1.42-.22,2.14-1.95,13.04-7.08,24.82-14.67,35.52-5,7.03-11,13.14-17.99,18.23-.83.61-1.62,1.25-2.58,1.98,9.9.77,34.88-16.1,46.8-31.75,12.07-15.88,17.57-34.16,18.37-54.82,4.84,8.34,6.53,16.53,6.61,25.08.2,19.98-7.65,36.67-20.98,51.11-3.95,4.26-8.4,8.01-13.29,11.73,9.5-.25,33.66-12.53,46.48-28.43,11.87-14.71,19.43-31.19,20.9-50.14,1.47-18.74-2.2-36.71-9.2-54.11,9.29,10.4,15.38,22.41,18.2,36,2.83,13.6,2.34,27.22-.03,40.88,4.12-6.87,6.84-14.26,8.72-21.99,3.95-16.31,3.62-32.68.84-49.11-1.86-11.03-2.98-22.13-1.76-33.41,1.78,7.73,4.48,15.15,7.58,22.68.91-17.99,6.61-33.78,19.02-46.83,0,0,0,0,0,0,.16.16.32.32.48.47.16-.19.32-.38.48-.57-.16.19-.32.37-.47.57-4.87,10.23-8.62,20.88-9.62,32.18-1.09,12.12-.42,24.21,4.06,35.78.22.59.28,1.23.58,1.78.28.53-.09,1.3.81,1.72-.64-16.17,1.48-31.71,9.67-46.01-.48,2.94-1.16,5.84-1.44,8.78-1.47,15.26-1.09,30.49.45,45.72,2.22,21.74,8.4,42.31,18.27,61.74,8.56,16.84,19.12,32.19,34.19,43.97,2.78,2.17,5.94,3.89,8.93,5.79.31.22.7.33,1.58.69-16.26-21.23-18.73-44.62-13.84-70.21,6.26,7.33,13.03,13.01,21.05,17.06.12-.2.25-.39.36-.59-9.54-13.78-9.14-28.8-5.4-44.19,1.3-5.34,3.08-10.54,6.14-15.65,3.53,12.42,9.67,22.57,20.02,29.85-6.04-11.36-7.04-23.57-6.36-35.99.78-14.18,3.61-27.96,9.97-40.8,2.5-5.03,2.3-10.04,1.12-15.24-.78-3.45.33-6.37,2.83-8.73,1.58-1.52,3.34-2.83,5.03-4.25,2.61-2.19,4.61-4.51,8.82-1.64,3.39,2.28,7.92.16,11.84-.81,1.17-.3,1.22-1.64,1.56-2.58,2.75-7.25,4.8-14.71,6.48-22.24.89-3.97,2.3-7.56,4.72-10.78,3.94-5.22,4.22-10.23.69-16.1ZM109.91,305.9c1.95.17,4.89-.72,5.69.27,1.17,1.44.84,4.11,1.12,6.26.03.2-.08.41-.13.61-.86-4.37-4.23-4.64-7.56-5.25-3-.56-6.06-1.12-9.37-3.16,3.89.5,7.06.97,10.25,1.27ZM93.37,301.38c-.5,1.89-.87,3.37-1.3,4.95-.64-1.27-1.81-1.91-2.91-2.62-1.08-.72-2.59-.77-3.42-2.39,2.66.77,5.09,2.09,7.62.06ZM237.87,331.72s-.04.09-.07.13c.02-.04.05-.09.07-.13ZM237.9,331.66s0,.02-.01.03c0-.01,0-.02.01-.03ZM238.14,331.19c.1-.1.23-.13.45.03,0,0,0,0,0,0-.22-.15-.35-.13-.45-.03ZM236.86,408.43s-.04-.06-.06-.09c0,0,.02.01.03.02.02.02.03.05.03.06,0,0,0,0,0,.01ZM236.54,408.14s0,0,0,0c.01,0,.01.01.03.02-.06-.03-.12-.05-.19-.07.05.02.11.03.16.05ZM236.3,408.05h0s0,0,0,0ZM236.3,408.08h0s0,0,0,0c.02.23-.05.49.08.68-.06-.09-.09-.2-.09-.31,0-.12.02-.25,0-.36ZM236.42,408.79c.05.05.11.1.22.13,0,0,0,0,0,0-.1-.03-.17-.08-.22-.13ZM236.79,408.88s.09-.07.1-.1c0-.03,0-.05,0-.07,0,.03.01.04,0,.08,0,.03-.05.07-.1.1ZM238.52,332.16c.24-.3.34-.66.11-.88.23.22.13.58-.11.88ZM258.96,450.2s-.02-.05-.02-.09c0,.04,0,.08.02.09.08.05.15.08.21.08-.06,0-.13-.02-.22-.08ZM289.56,380.4c-5.2,10.9-7.56,22.66-10.79,34.19-3.69,13.18-9.34,25.43-19.29,35.25-.13-.13-.26-.25-.41-.37,0,0,0,0,0,0,1.16-2.91,2.37-5.78,3.45-8.7,3.06-8.26,3.87-17.04,5.78-25.55,3.97-17.76,12.09-33.27,25.07-46.14.78-.77,1.37-2.28,3.03-1.34-2.55,4.11-4.78,8.32-6.84,12.67ZM587.84,114.69c-1.44.73-2.31-.44-3.4-.59-.25.16-.48.31-.73.47,4.3,5.19,8.25,10.59,11.89,16.96-2.95-1.42-5.42-2.64-7.9-3.84-.09.17-.2.33-.33.45,6.62,7.5,10.48,16.53,14.39,26.05-1.84-.94-3.3-1.67-4.75-2.41-.27.19-.55.37-.81.55,4.59,7.11,6.93,14.95,7.72,23.3.06.23.14.45.2.67-.42.12-.36-.2-.41-.44-1.45-1.05-2.91-2.11-4.37-3.17-.16.16-.33.3-.5.45,5.79,11.46,5.14,23.27,1.94,35.52-.39-25.22-16.24-45.9-36.17-50.17,9.57-1.92,23.21,1.19,31.22,7.12.2-.22.41-.45.62-.67-7.83-17.46-21.73-25.43-40.5-25.87,5.73-1.34,11.42-2.39,17.32-1.87,5.92.52,11.67,1.59,17.42,4.39-4.15-8.06-10.51-12.93-17.92-16.7-7.36-3.75-15.17-5.36-23.4-5.19,11.03-3.56,21.94-2.8,32.85.77-11.79-15.15-27.9-18.17-46.09-16.56,7.28-3.11,14.45-4.44,22.98-4.42-2.5-1.72-3.45-3.55-4.59-5.25-1.2-1.76-2.56-3.44-3.87-5.17,6.08.28,12.14,3.81,15.28,9.03.8,1.34,1.67,2,3.22,2.48,7.89,2.45,14.06,7.26,18.73,14.09ZM572.88,92.62c-15.12-5.89-30.22-9.82-46.56-8,14.84-8.39,36.31-5.44,46.56,8ZM508.17,172.57c.05-2.59,1.98-3.45,2.58-5.17-9.5.44-17.45,4.47-25.13,9.34,10-12.21,22.3-20.71,38.42-23.91-.87-.34-1.33-.64-1.81-.67-5.31-.44-10.62-.73-15.84.84-.53.17-1.16.73-1.8.58-.05-.02-.08-.03-.12-.06.03-.03.06-.06.09-.09-.17-.11-.34-.22-.55-.31v-.02s-.02-.03-.04-.05c0,0,0-.01-.01-.02,4.61-4.72,9.06-9.59,14.39-13.53l-.3-.3c-12.43,1.11-23.09,5.95-32,15.74.69-4.44,2.06-7.95,3.31-11.78-2.05.48-3.76.89-5.97,1.42,4.26-5.95,8.84-10.76,14.59-14.37,4.92-3.12,10.12-5.36,16.18-4.78,1.41.14,2.26.58,2.98,1.78,10.15,17.1,15.1,35.74,16.67,55.65-7.76-3.06-15.34-5.56-23.62-2.73,5.69-4.86,11.4-9.54,18.43-13.6-7.75.19-14.31,1.69-20.46,6.03ZM504.15,153.31s.02.02.03.03c-.01-.01-.02-.02-.03-.03,0,0,0,0,0,0,0,0,0,0,0,0,0,0,0,0,0,0ZM504.37,153.61h0c-.06-.08-.11-.16-.17-.23.06.08.11.16.17.23ZM467.93,133.99c2.94-12.64,9.43-23.04,19.87-31.04-15.73,3.9-27.66,12.98-36.14,26.87,1.02-8.53,4.98-15.87,8.75-23.59-1.66-.17-2.97-.08-4.26.47-.53.23-1.23.09-1.67-.52-.62-.87.34-1.03.67-1.37,6.97-7.28,15.26-12.18,25.32-13.78,2.31-.36,4.59-.02,6.7,1.11,9.09,4.78,14.53,13.09,21.01,20.95-16.81,1.3-29.27,9.54-40.24,20.9ZM477.24,280.92s-.02-.01-.03-.02c.01,0,.02.01.03.02,0,0,0,0,0,0ZM476.82,280.51s0,.07-.01.1c0-.04.01-.08.01-.11.06.06.13.12.19.18-.06-.06-.13-.12-.19-.17ZM540.03,70.36c-4.62-.91-9.32-.95-14.04-.84-4.39.09-8.73.39-13.06,1.23,12.46-7.28,27.36-8.86,40.25,2.87-4.37-1.11-8.72-2.41-13.15-3.26ZM532.44,58.93c-14.07-2.97-28.15-5.03-42.36-.7,9.89-6.48,27.72-10.47,42.36.7ZM496.81,44.68c-8.22,1.08-16.28,2.86-24.16,5.42,6.79-5.31,17.01-7.62,24.16-5.42ZM476.44,80.2c-1.42,0-2.76-.11-4.08.02-16.98,1.56-29.32,10.36-38.33,24.44-3.51,5.51-5.75,11.57-8.2,17.57v.02l-.03.05c.16-6.61,1.11-13.12,2.72-19.49,2.8-11.11,7.72-20.96,17.79-27.41,10.17-6.53,23.77-4.42,30.13,4.81ZM425.82,123.06c-.11-.03-.23-.08-.34-.11.11-.2.22-.42.33-.64h0c-.11.22-.22.44-.33.64.11.03.23.08.34.11h0ZM327.65,30.9c.13-.02.27.11.41.16-.25.09-.52.19-.77.27,0,.03.02.05.03.08h0l-.06-.06s.02,0,.03-.02c-.2-.36.11-.41.36-.42ZM169.93,67.35s-.02-.01-.03-.02c.01,0,.03,0,.03.01,0,0,0,0,0,0ZM169.57,67.7s.05-.08.07-.12c-.02.04-.04.08-.06.12,0,0,0,0,0,0,0,0,0,0,0,0-.03,0-.06,0-.1-.02h0s.08,0,.11,0ZM57.69,200.49c-.07-.05-.13-.11-.2-.16h0c.07.05.13.11.2.16ZM41.13,228.3c1.95,3.62,3.94,7.04,6.86,9.79,2.89,2.73,6.33,4.56,10.31,4.7,3.8.14,7.47-.67,10.67-3.59v8.57c-15.68-2.12-26.93-9.92-27.83-19.48ZM69.25,292.57c-.19-1.06-.69-1.73-1.3-2.31-4.06-3.78-7.43-8.11-10.54-12.68-.5-.73-1.69-1.31-.2-2.09,1.12-.59,1.84-.61,2.56.95,2.12,4.56,5.26,8.53,8.84,11.98,1.47,1.42,2.51,2.06.64,4.15ZM71.76,222.68c-.44,2.36-.69,4.75-.89,7.12-.11,1.2-.44,1.72-1.72,1.37-4.97-1.33-9.56-3.3-13.17-7.4,5.39,1.55,10.28.91,14.89-2.28.91-.64,1.09.16.89,1.19ZM75.53,209.85c-.62,2.61-1.83,2.61-3.92,1.78-.56-.22-1.12-.45-1.66-.72-.37-.16-.75-.34-1.11-.53-.89-.45-1.75-.94-2.58-1.47-.42-.27-.84-.55-1.25-.83-.87-.61-1.72-1.27-2.53-1.95-.23-.19-.47-.39-.69-.59-.44-.36-.86-.75-1.28-1.16,0,0,0,0,0,0,0,0,0,0,0,0-1.06-1.03-2.08-2.09-3.06-3.22v-.09c.06-.05.13-.11.17-.16,1.22-.97,1.95.59,2.72.98,5.87,3,13.76,2.26,18.43-2.31-1.22,3.81-2.45,6.98-3.25,10.26ZM89.88,181.13c-.14.39-.3.78-.47,1.17-.16.39-.33.77-.52,1.12-.91,1.84-2.03,3.59-3.06,5.39-.19.33-.36.66-.55,1-.28.53-.55,1.06-.8,1.61-.5,1.12-1.2.67-2.05.34-5.97-2.28-10.7-6.09-14.32-11.4,3.26,1.64,6.59,3.2,10.26,3.17.55,0,1.11,0,1.66-.02.56-.02,1.11-.03,1.66-.06.28-.02.55-.03.81-.06.42-.03.83-.08,1.22-.14.41-.06.8-.14,1.19-.23.52-.11,1.03-.27,1.53-.48,0,0,0,0,0,0,0,0,0,0,0,0,.42-.16.84-.36,1.25-.59.14-.08.28-.16.41-.25.62-.39,1.2-.89,1.77-1.5.08-.08.16-.17.23-.28.09-.08.16-.16.22-.23-.12.5-.27.98-.44,1.45ZM90.35,179.6s.02-.05.02-.08h0s-.02.05-.02.08h0ZM90.4,179.55s0,0,0,0l.08.07s0-.01,0-.02v.02s-.08-.08-.08-.08ZM99.07,170.74c-1.16,1.61-2.31,1.64-3.97.86-4.78-2.3-8.93-5.31-12.12-9.59-.39-.52-1.22-1.02-.37-1.92,6.83,4.97,14.1,6.39,22.01,2.62.08-.06.3.13.45.23.02.02.05.03.06.05h0s0,0,0,0h0c-2.03,2.58-4.14,5.09-6.06,7.75ZM105.1,162.82l.06.09-.05-.07v-.02ZM105.14,162.98h-.01s.04-.03.04-.03h0s-.02.02-.03.03ZM116.65,153.77c-1.34,1.39-2.36,1.56-3.98.61-5.87-3.44-10.78-7.87-14.29-13.73-.52-.87-1.61-1.72-.89-3.06,1.27.34,1.76,1.48,2.53,2.28,4.44,4.56,9.84,7.22,16.01,8.62,1.87.42,3.62-.36,5.4-.36.17,0,.34.02.52.03.02-.02.03,0,.05,0,.08,0,.17.02.25.03.08,0,.16.02.23.05,0-.02,0-.03-.02-.05,0,.01,0,.03.02.05.06.09.25.08.41.11.05,0,.09.02.12.03h0l.02.02h.02v.02h0c-2.16,1.76-4.45,3.39-6.39,5.36ZM122.48,148.04c.01-.06.02-.12.07-.21h0c-.05.09-.06.15-.07.21ZM138.49,138.54c-1.83,1.7-3.19,1.19-4.89.06-6.89-4.56-11.36-10.96-14.21-18.57-.58-1.55-1.64-3.06-1.09-5.36,6.5,10.12,13.74,18.6,27.16,18.76-2.53,1.81-4.97,3.23-6.97,5.11ZM159.04,125.56c-.86.14-1.56,0-2.23-.73-9.23-10.2-15.57-21.46-13.26-35.97,2.33,15.76,11.9,26.47,24.57,35.35-3.19.47-6.12.92-9.07,1.36ZM168.45,84.01c-3.92,2.56-7.87,5.04-11.73,7.7-2.2,1.5-3.26-.67-4.62-1.39-1.5-.8.17-1.76.56-2.53,1.78-3.44,4.2-6.45,6.7-9.37,2.53-2.95,4.5-6.5,8.33-8.12.16-.2.28-.45.39-.69.28-.58.52-1.19,1.05-1.58.09-.08.2-.14.33-.19t.03-.03h0s.05-.02.06-.03v-.02s0,.01,0,.02c0,0,0,0,0-.01,0,0,0,0,0,.02-.02.02-.05.02-.06.03.02.08.02.16.02.23.03.22.05.45.06.69.03.39.05.78.05,1.19.02.05.02.09.02.16.02.11.02.25,0,.37.02.05.02.06,0,.11v.02s.02.02,0,.03c.02.02.02.05,0,.06t0,.03s.02.02,0,.03t0,.03s.02.02,0,.03v.02s.02.02,0,.03c.02.59.02,1.2.02,1.8,0,.72.02,1.42.05,2.12,0,.23.02.47.05.7.05.62.13,1.23.23,1.84,1.55,8.15,4.64,15.62,9.22,22.54-5.26-4.14-8.18-9.86-10.73-15.84ZM196.33,74.87c-4.44,1.52-8.82,3.06-13.26,4.51-2.91.95-5.81,1.55-8.81.08-3.39-1.64-3.53-2.06-.95-4.69.95-.97,1.94-1.92,2.91-2.87,7.43-7.31,15.7-13.62,23.85-20.09.02-.02.05-.03.06-.05l.09.08-.16-.03c.53.41.39.92.2,1.41-2.67,6.59-2.3,13.28-.41,19.91,1.97,6.9,4.87,13.43,8.29,19.79-5.92-4.73-9.11-11.29-11.82-18.06ZM265.27,87.12c-1.37-.77-1.36-.77-2.14-2.06-4.06-6.79-6.58-14.17-7.97-21.9-.31-1.75-.86-1.97-2.33-1.86-5.72.47-11.43.87-17.17,1.28-1.83.13-3.81.73-5.11-1.52,1.22,14.43,5.97,27.37,14.26,39.02h0c-.2.17-.41.34-.59.5.06.15.13.27.21.36-.08-.09-.15-.2-.21-.36-8.53-6.01-13.46-14.57-17.18-24.05-1.09-2.76-.59-7.08-2.98-8.06-2.47-1.03-6.03.67-9.14,1.06-3.09.41-6.17,1-9.32.78-2.59-.19-3.81-1.87-4.59-4.05-.78-2.17,1.25-2.64,2.39-3.47,8.9-6.59,17.84-13.14,26.8-19.63,2.98-2.14,6.03-4.22,9.67-5.44-3.08,3.72-4.9,7.56-3.01,12.35.37.95.33,2.06.55,3.08.22,1.02.5,2,.66,2.58,8.58-10.87,20.49-16.15,32.83-20.79-13.32,16.34-11.67,34.03-5.62,52.17ZM310.86,87.62c.17.67,1.47,1.52.28,2.08-1.02.5-1.28-.78-1.61-1.48-4.2-8.86-6.65-18.15-7.18-27.99-.09-1.89,1.7-4.5-.47-5.54-1.66-.81-4.09-.02-6.19.08-1.78.09-2.94.78-3,2.81-.03,1.02-.44,2.01-.59,3.03-1.48,9.87-.94,19.62,1.8,29.27-6.48-10.61-9.28-22.21-8.95-35.27-2.14,1.95-4.44,1.36-6.56,1.83-5.29,1.19-5.33,1.06-5.92,6.39-.02.19-.41.33-.83.62-1.23-8.43-.06-16.09,4.61-23.16,5.92-8.98,15.28-10.48,25.35-11.96-6.69,4.58-12.2,9.62-15.68,16.51.25.19.48.37.73.55,6.5-5.72,14.34-8.64,22.51-10.84.67-.19,1.34-.36,2.01-.55.59-.17,1.19-.33,1.78-.48.59-.17,1.17-.33,1.76-.47.5-.14,1-.27,1.52-.39.09-.03.19-.05.27-.06,1.19-.28,2.37-.53,3.58-.73.08-.02.17-.03.27-.05.36-.05.72-.11,1.09-.16.45-.06.91-.11,1.37-.16.73-.06,1.47-.11,2.22-.13.73-.02,1.48,0,2.23.05-.02.14-.03.25-.08.36-.03.03-.05.06-.06.09-.06.11-.16.22-.25.31-.23.19-.52.34-.73.52-16.51,13.34-20.06,36.85-15.28,54.93ZM354.43,95.44c-.98.31-1.09-.75-1.34-1.36-3.69-8.98-5.56-18.31-5.28-28.04.06-2.34,1.17-5.7.06-6.75-1.33-1.27-4.53-.58-6.92-.62-9.09-.19-10.15.78-11.81,9.93-.55,3.06-.42,6.25-1.8,9.86-1.33-3.81-1.48-7.12-1.7-10.37-.73-11.12,1.45-21.43,9.15-30,5.51-6.14,13.15-8.81,19.93-6.95-8.17,4.12-15.18,12.4-15.39,16.23,12.6-11.39,28.01-12.93,44.14-11.86-2.98,1.2-5.47,3.06-8,4.86-17.65,12.5-25.51,32.6-20.77,53.21.16.7.61,1.56-.28,1.86ZM396.74,111.97c-2.28-14.57-2.14-28.26,1.53-41.77.58-2.11-.14-2.3-1.8-2.3-2.94-.02-5.86-.17-8.79-.17-7.56-.02-11.65,2.92-13.89,10.15-1.55,5.01-2.06,10.2-1.94,15.43.02.95-.02,1.89.02,2.83.02.77.09,1.55.13,2.31-2.95-8.23-4.03-16.57-2.64-25.15,2.12-13.15,8.09-23.8,19.68-30.94,4.58-2.81,9.23-4.23,14.48-1.92,1.3.56,2.75.8,4.47,1.27-7.65,4.09-14.49,8.76-19.32,15.84.05.07.1.13.14.2-.05-.07-.1-.13-.14-.2-.17.25-.34.5-.52.75-.64.25-.7.66-.34,1.19.28-.27.56-.53.84-.8.16-.16.33-.31.5-.47h0c12.54-9.26,26.13-13.31,42.41-8.64-5.2,3.45-9.57,6.62-12.67,11.18-.28.09-.59.25-.36.56.09.12.52,0,.78-.02h0c1.33-.83,2.62-1.72,4-2.45,8.5-4.58,16.95-6.39,25.1.59-8.31,2.05-15.67,6.04-21.88,12.04-6.25,6.06-10.29,13.49-13.12,21.74-1.89-8.31-.64-16.51,1.44-25.37-14.57,11.45-16.65,27.22-18.1,44.09ZM398.63,247.14c-4.33-2.92-8.7-5.78-12.82-8.97-12.78-9.89-24.01-21.45-35.89-32.3-3.4-3.12-7.01-6.04-9.84-9.84,1.83.45,3.51,1.17,5.25,1.78,25.52,9.07,51.62,12.54,78.5,7.79,8.54-1.5,16.09.48,22.88,5.76,5.81,4.51,11.11,9.51,15.17,16.2-3.73-.27-5.25-4.09-8.84-4.94,1.45,3.2,2.19,6.12,2.83,9.14-.41-.03-.69.03-.8-.08-.67-.64-1.33-1.31-1.95-2-8.82-9.7-19.77-13.85-32.85-12.9-13.87,1.02-27.76,1.61-41.33-2.5-.62-.2-1.31-.34-2.22.41,14.49,7.61,29.4,12.82,45.47,14.53-10.78,3.47-20.77.98-30.52-3.5h0c-.25-.05-.66-.19-.73-.08-.22.3.02.48.34.56.04-.05.08-.1.12-.15-.04.05-.08.1-.12.15,14.32,11.98,30.04,21.05,49.04,23.32-2.14.81-4.25,1.37-6.33,1.98-12.4,3.56-24.26,3.11-35.36-4.37ZM418.45,302.15c.56-16.37,27.32-39.06,45.31-38.86-17.59,9.73-32.53,22.76-45.31,38.86ZM466.6,315.85c-12.75,15.23-19.81,32.41-18.74,52.56.11,1.97,1.36,3.9.09,6.53-2.16-3.75-2.5-7.53-3.3-11.17-.33-.2-.89-.36-.95-.62-2.44-10.2-3.5-20.48-1.69-30.91,1.45-8.43,4.45-16.23,9.42-23.23.41-.56,1.52-1.2.14-1.94-9.34,6.37-17.79,13.67-24.32,23.27-.09-.61-.23-1.02-.17-1.37.09-.61.28-1.22.5-1.8,7.59-20.45,21.66-34.82,41.33-43.84,2.62-1.2,5.22-2.92,8.4-2.36-2.05,1.03-2.92,3.12-4.23,4.81-6.61,8.56-9.98,18.68-13.71,28.63,0,.27-.09.64.03.75.3.23.47-.05.55-.33h0c6.37-6.06,13.09-11.62,21.16-15.29h0c.2.16.39.31.59.48-5.47,4.86-10.4,10.2-15.1,15.82ZM481.33,204.62c.56.16.97.19,1.3.37,5.39,2.95,11.17,3.94,17.26,3.51,8.98-.62,17.6-3.28,27.04-4.5-2.78-1.8-5.34-2.67-7.83-3.65-2.5-1-5.28-1.23-8.09-2.76,11.61-1.09,19.9.59,28.51,6.65,7.51,5.29,14.6,11.2,21.85,16.87.8.62,1.33,1.69,2.58,1.08-6.59-10.59-13.7-20.85-20.74-31.19,8.75,5.9,16.15,13.25,23.16,21.88-1.59-8.15-3.2-15.42-6.01-22.38,10.07,11.68,15.26,25.97,21.76,39.59,3.78-10.67,5-21.48,3.69-32.6,2.23,4.3,3.39,8.9,4.73,13.45,3.61,12.35,7.43,24.62,15.79,34.82,1.47,1.78,2.95,3.55,4.26,5.44,2.14,3.06,1.33,7.83-1.72,10.78-2.16,2.11-6.17,1.92-9.17-.42-1.83-1.44-3.23-3.26-4.56-5.15-2.39-3.42-4.69-6.94-7.64-9.92-2.44-2.44-5.08-4.64-8.06-6.42.25,1.12.75,2,1.17,2.92,1.97,4.2,3.39,8.53,3.03,13.26-.42,5.33-4.73,8.53-9.95,7.73-4.94-.73-7.62-4.2-9.9-7.97-3.23-5.36-6.06-10.95-9.15-16.4-1.84-3.25-4.25-6.06-7.18-8.47.37,3.25,2.73,5.86,2.84,9.47-3.8-1.89-6.83-4.2-9.72-6.78-5.61-4.97-10.31-11.03-17.27-14.37-.53,1.44.37,2.3,1.22,3.22,2.23,2.44,3.9,5.25,5.22,8.26.06.04.12.08.17.12-.06-.04-.12-.08-.17-.12-.07.09-.15.19-.23.28,0,0,0,0,0,0-5.5-1.94-11.14-3.5-16.92-4.28-5.87-.81-11.46-2.44-16.42-5.67-5.44-3.55-10.25-7.81-13.2-13.79-.7-.77-1.89-1.25-1.64-2.86ZM550.69,240.67c-.06,0-.14-.01-.17.02-.04.05-.09.14-.07.19.03.06.06.1.09.13-.03-.03-.06-.08-.09-.14-.02-.03.03-.14.08-.19.03-.03.11,0,.17-.02.03.06.11.14.09.19-.02.06-.05.11-.07.15.03-.03.05-.08.07-.15.01-.05-.06-.12-.09-.18ZM550.72,241.01s-.01,0-.02.01c0,0,.01,0,.02-.01ZM549.59,263.16c-4.45,3.25-11.01,2.87-14.7-.83-3.22-3.23-3.5-10.14-.56-14.28,1.95-2.75,2.67-2.73,4.86.17,4.17,2.48,7.61,5.76,10.2,9.89,2.87,2.25,2.91,3.08.2,5.04ZM530.42,231.42c-.28.31-.5.27-.69.09.19.17.4.21.69-.09,0,0,0,0,0,0ZM485.74,343.04c-1.52-12.21,4.42-30.61,9.68-32.43-1.76,4.86-2.36,9.95-3.06,15.49,3.23-2.62,6.06-5.01,10.28-5.94-7.33,6.75-12.96,13.99-16.9,22.87ZM510.13,375.67s.08.01.12.03c-.04-.01-.08-.02-.12-.03ZM528.28,480.8c-4.06-8.92-5.86-18.2-4.12-28.05,1.64,9.29,3.26,18.6,4.9,27.9-.27.05-.53.11-.78.16ZM552.49,420.68c-6.12,14.53-10.64,29.47-11.92,45.23-.87-19.15,4.06-36.74,11.92-45.23ZM557.13,483.99c-1.23,4.62-2.44,9.26-3.44,13.93-.75,3.51-1.17,7.11-1.75,10.65-.11-.02-.2-.05-.31-.06v-29.75c-.78-14.92,2.22-33.28,5.48-38.31,0,.36.05.69-.02.98-1.83,8.92-2.8,17.87-1.97,27.02.31,3.39.83,6.81.83,10.23,1.73,1.48,1.7,3.28,1.17,5.31ZM557.58,438.55l-.04-.14.04.14h0ZM557.5,438.43l.02-.1h0s-.02.1-.02.1ZM574.83,450.44h0l-.05-.05s0,.08-.02.11h0c0,.06,0,.13-.02.19-.02.27-.02.53-.05.8,0,.09-.02.2-.03.3,0,.09-.02.19-.03.27-.02.17-.06.33-.11.48-1.44,4.14-2.8,8.31-3.73,12.57-.94,4.23-1.78,8.48-2.67,12.78-.45-1.84-.77-3.64-.94-5.4-.19-1.89-.2-3.73-.03-5.53,0-.13.02-.23.03-.36.08-.75.19-1.5.33-2.23.08-.42.16-.84.27-1.25.09-.41.2-.81.31-1.2t.02-.03c.11-.41.23-.81.39-1.22.55-1.61,1.28-3.19,2.19-4.72.2-.37.44-.75.69-1.11.23-.37.5-.75.77-1.12.3-.44.62-.86.97-1.28.23-.3.47-.58.73-.87.3-.36.61-.7.92-1.05.02-.03.02-.08.02-.11.03-.03.05-.06.08-.09,0,.06,0,.09-.03.14ZM574.86,450.28c0-.27-.17-.62.41-.52-.13.17-.27.34-.41.52ZM579.67,433.07c.98-7.78,1.95-15.56,2.94-23.32-.19-.03-.36-.08-.53-.11-2.64,5.62-5.28,11.23-7.93,16.84-1.19,4.09-3.37,7.64-6.03,11.9-.11-1.33-.22-1.72-.16-2.09.75-5.36,1.5-10.7,2.33-16.06.34-2.25.2-3.92-2.75-2.84-1.34.5-2.47-.06-3.64-.42-8.48-2.61-13.79-8.39-16.24-16.74-2.44-8.28-4.61-16.63-6.83-24.96-.28-1.06-.34-2.09-1.76-2.12.2,2.09.39,4.2.58,6.29.84,1,1.17,2.17,1.25,3.47.69,11.61-1.7,22.71-5.64,33.6.62-8.12.58-16.24-.11-24.33-.67-7.89-2.16-15.63-4.61-23.13-.33.06-.66.11-.98.17v11.4c-6.97-19.04-15.12-37.83-10.34-59.35,1.27,11.42,2.83,17.2,5.22,19.68.17-13.9,3.95-25.51,9.72-28.94-2.05,4.45-2.09,8.92-2.06,13.4.16.61.34,1.2.48,1.81,4.42,19.49,12.39,37.39,24.23,53.51,5.34,7.26,11.89,13.15,20.57,16.31,7.08,2.58,14.4,3.69,22.74,3.92-8.72,9.93-15.79,20.24-20.43,32.13ZM551.9,350.47c1.97,2.5,3.09.66,4.86.28-.27,2.53,0,4.92-1.09,7.36-1.81-2.02-2.95-4.2-3.76-7.64ZM556.83,359.95c2.45.2,4.06-1.14,5.95-1.7,1.23-.36,1.56-.02,1.87,1.19.84,3.31,0,5.89-3.03,7.84-1.69-2.09-3.34-4.33-4.8-7.33ZM577.39,379.09c3.65-1.53,7.31-3.09,11-4.65.66,3.37-.37,6.33-.27,9.34,4.25-.36,7.89-2.06,11.7-3.42-.14,4.62-.69,5.89-2.76,6.48-6.26,1.8-12.39,1.5-18.02-1.92-5.28-3.2-10.42-6.68-13.57-12.35,3.01-1.03,5.75-1.97,8.5-2.91.09.28.22.48.22.67-.17,1.97-.36,3.94-.52,5.92-.33,4.03.11,4.36,3.73,2.84ZM600.12,376.26c-.92.22-1.61-.17-2.06-1.03-.58-1.11-1.41-2.14-1.75-3.31-.87-2.87-2.87-3.94-5.67-4.44-7.25-1.27-13.25-4.97-18.29-10.2-4.12-4.25-6.61-9.29-7.12-16.15,11.42,16.81,25.69,27.63,45.67,29.96-2.94,3.3-6.86,4.26-10.78,5.17ZM570.92,321.43s.05.09.07.14c-.03-.05-.05-.11-.08-.15,0,0,0,0,.01.01ZM630.73,366.75c-.14-5.2,2.05-9.61,4.75-13.85-1.08,4.8-2.51,9.47-4.75,13.85ZM640.74,334.51c-2.5,2.87-6.22,3.62-9.26,5.72-1.05-2.67-2.2-5.2-3.72-7.61-5.47-8.7-15.6-10.7-23.04-16.81-.39,1.44-.69,2.44-.92,3.44-1.87,7.73-.39,13.81,7.67,17.18,4.84,2.05,7.15,6.25,7.64,11.4.14,1.56.31,2.75,2.16,3.16,1.84.42,1.53,1.25.25,2.23-2.48,1.94-5.4,2.7-8.42,3.73,1.36.22,2.73.45,4.14.69-7.92,3.92-24.91-2.64-34.96-13.42-1.12-.98-2.17-2.02-3.11-3.08-.23-.27-.47-.52-.69-.78-.39-.47-.77-.94-1.12-1.42-.41-.53-.8-1.08-1.16-1.64-.2-.31-.41-.62-.59-.94-.09-.14-.19-.28-.27-.44-.16-.28-.31-.55-.47-.83-.36-.66-.7-1.34-1-2.03-.08-.14-.14-.3-.22-.45-.39-.92-.75-1.86-1.05-2.81-.34-1.06-.64-2.16-.86-3.26-.12-.53-.22-1.08-.31-1.61-.09-.55-.17-1.11-.22-1.66-.06-.53-.11-1.06-.16-1.61-.02-.02-.02-.03-.03-.03,0,0,0,0,0,0,0,0,.03-.03.03-.03-.03-.04-.06-.07-.09-.11.03.03.07.07.09.1v.08c1.86,1.17,3.75,2.33,5.62,3.51.22.25.44.47.66.72h0c-.09.05-.19.11-.25.19.08-.03.19-.06.3-.13l.03-.08h0v-.02c.41.27.81.53,1.22.81.55.37,1.08.75,1.61,1.16.53.39,1.05.81,1.55,1.23.19.16.37.31.55.48.2.16.41.34.59.55.17.16.34.33.52.52.16.16.3.3.42.45.16.16.3.33.44.48,0,0,.02,0,.02.02.59.69,1.14,1.44,1.62,2.23-.02.02-.02.05-.03.08h0v.02h0s0,0,0,0l.05-.05s.05-.03.08-.05h.05s.11-.03.16-.05c.05-.02.11-.05.15-.08.04-.04.07-.08.07-.15,0-.06,0-.12-.03-.2-1.66-4.81-2.28-9.93-4.4-14.6-2.7-5.9-7.47-8.42-13.85-7.5-4.28.62-8.61,1.92-12.84-.27-.42.87-1.03.37-1.58.2-3.59-1.2-6.98-2.84-9.72-5.5-3.44-3.36-7.31-5.5-12.25-5.34-5.22.16-10.37.8-15.45,2.09-.73.2-1.45.5-2.45-.03,4.17-3.67,9.01-5.56,14.04-7.9-2.64-1.53-5.08-2-7.51-2.41-7.28-1.2-14.59-2.11-21.52-5-10.78-4.48-14.74-13.71-10.34-24.44,1.62-3.92,4.53-7,6.61-10.62.3-.5.42.28.48.59,1.33-.09,1.05.97,1.25,1.7.73,2.67.47,5.45,1.03,8.23,1.42-1.95,2.73-3.87,3.26-6.22-1.66-.5-.97-1.91-1.03-2.91-.17-2.98-.94-5.73-2.64-8.22-1.84-2.66-3.72-5.28-5.5-7.98-1.37-2.09-3.17-3.97-3.56-6.79,4.14,3.37,9.43,3.9,13.92,6.22,4.51,2.33,8.51,5.56,10.32,10.68,2.26,3.05,3.65,6.53,4.94,10.07,2.28,6.29,5.58,11.75,12.25,14.43-1.25,1.16-2.81.11-4.15,1.12,3.26,2.16,6.79,3.14,10.45,3.87,3.73.75,7.51.39,12.07.19-7.54,4.98-14.99,5.98-23.27,4.3.48.67.59.98.83,1.12,8.51,5.36,17.49,7.81,27.36,4.12,5.36-2,10.32-1.58,15.18,1.61,5.94,3.9,12.1,7.4,18.51,10.48,1.11.55,2.12,1.37,3.58.83-5.67-6.01-11.15-12.12-16.1-18.71-.3-.39-.98-.73-.98-1.31,0-.08.02-.16.05-.25.03-.09.08-.19.14-.3-.02-.02-.03-.05-.05-.06-.13.03-.25.05-.37.08.02-.14.05-.3.08-.44.09.13.19.23.3.36.03,0,.06-.02.09-.02l-.05.08c8.56,3.73,16.79,8.12,24.82,12.89.11-.12.22-.25.34-.36-4.34-5.65-9.54-10.78-11.15-18.18,3.39,2.11,6.64,4.17,10.73,5.94-1.86-2.7-3.05-4.95-3.37-7.9,3.09,2.33,6.22,4.05,9.81,4.42,1.64.17,2.62.84,3.56,2.09,12.1,16.04,22.3,33.35,33.22,50.18,1.76,2.72,1.06,4.44-.77,6.53Z"/>
    <path class="cls-1" d="M597.13,166.48c-.53-.3-.44.17-.5.45.14-.09.28-.2.42-.31.05-.05.08-.09.08-.14Z"/>
    <path class="cls-1" d="M518.05,139.21l.3.3c.27-.03.52-.13.31-.42-.05-.06-.41.08-.61.13Z"/>
    <path class="cls-1" d="M570.45,517.57c3.21,2.38,6.55,4.43,10.04,6.19l7.54,3.68,4.37-7.15c.19-.3.36-.58.53-.9l2.68-4.93-3.18-4.6c-5.82-8.41-7.51-17.77-5.36-30.55,3.71,5.14,8.16,9.5,13.4,13.18l13.26-11.71c-4.41-8.28-6.04-17.9-5.3-31.21.25-4.38.69-8.55,1.34-12.55-.62,1.47-1.27,2.93-1.94,4.37-.31,2.63-.55,5.32-.7,8.1-.74,13.57.94,23.4,5.46,31.9l-11.38,10.04c-5.4-3.78-9.95-8.35-13.68-13.72-.4-.56-.78-1.13-1.16-1.72-.32,1.59-.6,3.13-.82,4.64-1.78,12.27.09,21.72,5.8,29.97l2.73,3.94-2.29,4.23c-.09.14-.17.3-.26.44l-3.99,6.51-6.47-3.12c-4.13-2.08-8.05-4.59-11.8-7.58-1.13,19.16,3.54,34.98,14.29,49.02l17.56,22.93-26.72-10.97-.55-.22c-.61-.23-1.43-.56-2.34-1.16-.81-.51-1.64-1.01-2.46-1.51-2.3-1.4-4.69-2.85-7.01-4.67-10.82-8.45-20.03-18.94-28.42-32.42-.34.27-.69.55-1.03.79,8.44,13.56,17.74,24.13,28.64,32.66,2.39,1.86,4.8,3.33,7.14,4.74.82.49,1.62.99,2.42,1.5,1.01.66,1.91,1.01,2.59,1.27l.52.21,31.17,12.8-20.5-26.75c-10.08-13.16-14.7-27.95-14.13-45.68ZM261.75,564.59c-.36-.14-.74-.31-1.1-.47-3.46-1.52-7.31-3.33-10.99-5.94-1.66-.94-3.31-1.9-4.95-2.89l-.21.36c4.99,4.75,10.69,7.48,15.61,9.66,4.45,1.96,9.06,3.61,13.82,4.91-4.12-1.77-8.18-3.65-12.18-5.64ZM166.46,483.05c-5.98-4.98-10.85-10.56-14.75-16.86l2.42-2.33c-.04-.08-.09-.16-.14-.23l-3.38,3.25c4.73,7.64,10.87,14.25,18.63,20.01-.94-1.27-1.86-2.55-2.77-3.83Z"/>
    <path class="cls-1" d="M456.51,303.21c.28.17.55.34.81.52.25-.25.73-.52.34-.86-.39-.34-.87-.17-1.16.34Z"/>
  </g>
</svg>