<?xml version="1.0" encoding="UTF-8"?>
<svg id="Layer_1" data-name="Layer 1" xmlns="http://www.w3.org/2000/svg" viewBox="0 0 1080 1080">
  <defs>
    <style>
      .cls-1 {
        fill: #3d3d3d;
      }

      .cls-1, .cls-2, .cls-3 {
        stroke-width: 0px;
      }

      .cls-2 {
        fill: #222;
      }

      .cls-3 {
        fill: #ba0100;
      }
    </style>
  </defs>
  <g>
    <g>
      <g>
        <path class="cls-2" d="m687.61,317.32c-20.38-13.75-15.41-39.35-3.48-49.54,11.93-10.19,14.41-36.03-28.58-72.31-53.18-42-116.55-41.67-116.55-41.67,0,0-63.37-.33-116.55,41.67-42.99,36.28-40.51,62.13-28.58,72.31,11.93,10.19,16.9,35.78-3.48,49.54-17.83,12.03-22.47,31.67-14.03,47.05,2.2,4.01,5.38,7.45,9.06,10.18,8.68,6.46,14.08,5.89,14.08,5.89,0,0-12.35-35.87,15.24-35.87,45.97,0,93.93,85.24,105.37,5.72,0,0,12.43,76.04-28.83,90.95-37.38,13.51-95.18-29.51-106.24,4.29-2.27,6.93-1.57,14.48,1.23,21.22,10.41,25.05,24.99,40.35,24.99,40.35,0,0,15.41-9.69,32.47-9.69,0,0,12.09,72.56,34.29,114.97,0,0,8.28-36.12,23.52-50.69,0,0,24.19,126.57,37.44,166.33,13.25-39.76,37.44-166.33,37.44-166.33,15.24,14.58,23.53,50.69,23.53,50.69,22.2-42.41,34.29-114.97,34.29-114.97,17.06,0,32.47,9.69,32.47,9.69,0,0,14.58-15.3,25-40.35,2.8-6.73,3.5-14.29,1.23-21.22-11.06-33.8-68.86,9.22-106.24-4.29-41.25-14.91-28.83-90.95-28.83-90.95,11.43,79.52,59.39-5.72,105.37-5.72,27.59,0,15.24,35.87,15.24,35.87,0,0,5.4.58,14.08-5.89,3.67-2.74,6.85-6.17,9.06-10.18,8.44-15.38,3.8-35.02-14.03-47.05Zm-121.77,186.38c-27.83-27.17-54.67,0-54.67,0-2.73-46.88,27.34-54.26,27.34-54.26,29.32,9.44,27.34,54.26,27.34,54.26Z"/>
        <path class="cls-2" d="m343.52,361.22l50.36,56.66-15.82,2.91c-18.22,3.36-29.24,22.08-23.32,39.64l27.55,81.69,32.8-15.9s9.11,34.05,19.8,59.39h-41.5s-80.02-56.74-97.25-144.71l47.38-79.69Z"/>
        <path class="cls-2" d="m735.91,361.22l-50.36,56.66,15.82,2.91c18.22,3.36,29.24,22.08,23.32,39.64l-27.55,81.69-32.8-15.9s-9.11,34.05-19.8,59.39h41.5s80.02-56.74,97.25-144.71l-47.38-79.69Z"/>
      </g>
      <path class="cls-1" d="m632.62,610.95c-13.67,5.56-27.94,9.93-42.7,13.01l-9.98,43.97c50.55-7.16,96.91-27.31,135.62-56.98h-82.94Z"/>
      <path class="cls-3" d="m268.24,491.25c14.63,35.51,36.05,67.52,62.64,94.37h-120.56l57.92-94.37Z"/>
      <path class="cls-3" d="m869.68,585.62h-123.18c27.1-27.36,48.82-60.05,63.46-96.38l59.72,96.38Z"/>
      <path class="cls-1" d="m715.56,610.95c-38.71,29.67-85.07,49.81-135.62,56.98l9.98-43.97c14.76-3.07,29.04-7.44,42.7-13.01h82.94Z"/>
      <path class="cls-3" d="m589.1,134.34c-16.28-3.3-33.15-5.06-50.4-5.06s-34.73,1.8-51.26,5.23l51.57-82.76,50.09,82.58Z"/>
    </g>
    <path class="cls-2" d="m596.37,94.08l27.08,50.63c96.17,34.7,164.89,126.78,164.89,234.9,0,6.94-.28,13.79-.86,20.58l32.29,55.83c6.63-24.34,10.16-49.97,10.16-76.41,0-141.11-100.34-258.75-233.55-285.53ZM247.46,379.61c0,27.08,3.68,53.27,10.62,78.14l30.97-55.76.94-.74c-.64-7.14-.94-14.35-.94-21.64,0-107.1,67.42-198.42,162.12-233.88l32.57-52.15c-134.56,25.66-236.27,143.98-236.27,286.03Zm240.44,244.45c-14.91-3.05-29.31-7.47-43.13-13.11h-82.97c38.51,29.52,84.62,49.61,134.84,56.85l-8.74-43.74Zm144.72-13.11c-13.67,5.56-27.94,9.93-42.7,13.01l-9.98,43.97c50.55-7.16,96.91-27.31,135.62-56.98h-82.94Z"/>
  </g>
  <g>
    <g>
      <path class="cls-3" d="m224.72,996.18v27.25h-9.62v-62.53l28.86,48.1,28.86-48.1v62.53h-9.62v-27.25l-19.24,32.06-19.24-32.06Z"/>
      <path class="cls-3" d="m325.68,1025.84c-8.65,0-16.02-3.05-22.12-9.15-6.1-6.1-9.15-13.47-9.15-22.12s3.05-16.02,9.15-22.12c6.1-6.1,13.47-9.15,22.12-9.15s16.01,3.05,22.12,9.15c6.1,6.1,9.15,13.47,9.15,22.12s-3.05,16.02-9.15,22.12c-6.1,6.1-13.47,9.15-22.12,9.15Zm0-9.62c5.99,0,11.09-2.11,15.31-6.33,4.22-4.22,6.33-9.33,6.33-15.31s-2.11-11.09-6.33-15.31c-4.22-4.22-9.33-6.33-15.31-6.33s-11.09,2.11-15.31,6.33c-4.22,4.22-6.33,9.33-6.33,15.31s2.11,11.09,6.33,15.31c4.22,4.22,9.33,6.33,15.31,6.33Z"/>
      <path class="cls-3" d="m391.63,975.33v48.1h-9.62v-48.1h-14.43v-9.62h38.48v9.62h-14.43Z"/>
      <path class="cls-3" d="m448.81,1025.84c-8.65,0-16.02-3.05-22.12-9.15-6.1-6.1-9.15-13.47-9.15-22.12s3.05-16.02,9.15-22.12c6.1-6.1,13.47-9.15,22.12-9.15s16.01,3.05,22.12,9.15c6.1,6.1,9.15,13.47,9.15,22.12s-3.05,16.02-9.15,22.12c-6.1,6.1-13.47,9.15-22.12,9.15Zm0-9.62c5.99,0,11.09-2.11,15.31-6.33,4.22-4.22,6.33-9.33,6.33-15.31s-2.11-11.09-6.33-15.31c-4.22-4.22-9.33-6.33-15.31-6.33s-11.09,2.11-15.31,6.33c-4.22,4.22-6.33,9.33-6.33,15.31s2.11,11.09,6.33,15.31c4.22,4.22,9.33,6.33,15.31,6.33Z"/>
      <path class="cls-3" d="m518.4,1009h-7.21v14.43h-9.62v-57.72h21.64c5.99,0,11.09,2.11,15.31,6.33,4.22,4.22,6.33,9.33,6.33,15.31s-2.1,11.09-6.31,15.3c-2.66,2.66-5.65,4.48-8.98,5.49l15.3,15.3h-12.02l-14.43-14.43Zm-7.21-33.67v24.05h12.02c3.33,0,6.17-1.17,8.51-3.51,2.34-2.34,3.51-5.18,3.51-8.51s-1.17-6.17-3.51-8.51c-2.34-2.34-5.18-3.51-8.51-3.51h-12.02Z"/>
      <path class="cls-3" d="m584.04,989.04l2.11,1.13c3.08,1.65,5.82,3.4,8.23,5.24,2.4,1.84,4.26,3.93,5.56,6.26,1.08,1.95,1.62,4.17,1.62,6.65,0,.53-.03,1.07-.08,1.62-.32,3.53-1.55,6.53-3.66,8.98-2.12,2.46-4.87,4.26-8.25,5.41-2.56.88-5.31,1.32-8.27,1.32-.95,0-1.93-.05-2.93-.15-4.96-.43-9.15-1.85-12.55-4.28-1.33-.93-2.49-1.95-3.49-3.08l5.86-7.85c.95,1.2,2.09,2.24,3.42,3.12,2.26,1.48,4.84,2.36,7.74,2.63.65.05,1.28.08,1.88.08,2.58,0,4.96-.57,7.14-1.71,2.18-1.14,3.37-2.85,3.57-5.13.02-.2.04-.39.04-.56,0-1.2-.37-2.36-1.11-3.48-.74-1.11-1.79-2.22-3.16-3.31-1.37-1.09-2.89-2.12-4.57-3.1-1.5-.88-3.01-1.72-4.51-2.52l-.6-.38c-1.73-.9-3.43-1.88-5.09-2.95-1.67-1.06-3.17-2.28-4.49-3.65-1.33-1.37-2.36-2.94-3.08-4.72-.6-1.38-.9-2.94-.9-4.7,0-.48.03-.96.07-1.47.3-3.28,1.43-6.1,3.38-8.46,1.95-2.36,4.47-4.11,7.55-5.26,2.38-.9,4.94-1.35,7.67-1.35.75,0,1.53.04,2.33.11,4.31.38,7.9,1.65,10.78,3.83.88.68,1.67,1.4,2.37,2.18l-5.64,7.59c-.68-.83-1.44-1.55-2.29-2.18-1.78-1.25-3.77-1.98-5.98-2.18-.45-.05-.89-.08-1.31-.08-2.21,0-4.26.61-6.16,1.82-1.9,1.22-2.96,2.89-3.16,5.02-.03.17-.04.36-.04.56,0,1.15.38,2.21,1.13,3.16.75.95,1.87,1.88,3.36,2.78,1.49.9,3.21,1.85,5.17,2.86l.34.19Z"/>
      <path class="cls-3" d="m631.83,1009v14.43h-9.62v-57.72h21.64c5.99,0,11.09,2.11,15.31,6.33,4.22,4.22,6.33,9.33,6.33,15.31s-2.11,11.09-6.33,15.31c-4.22,4.22-9.33,6.33-15.31,6.33h-12.02Zm0-33.67v24.05h12.02c3.33,0,6.17-1.17,8.51-3.51,2.34-2.34,3.51-5.18,3.51-8.51s-1.17-6.17-3.51-8.51c-2.34-2.34-5.18-3.51-8.51-3.51h-12.02Z"/>
      <path class="cls-3" d="m716.15,1025.84c-8.65,0-16.02-3.05-22.12-9.15-6.1-6.1-9.15-13.47-9.15-22.12s3.05-16.02,9.15-22.12c6.1-6.1,13.47-9.15,22.12-9.15s16.01,3.05,22.12,9.15c6.1,6.1,9.15,13.47,9.15,22.12s-3.05,16.02-9.15,22.12c-6.1,6.1-13.47,9.15-22.12,9.15Zm0-9.62c5.99,0,11.09-2.11,15.31-6.33,4.22-4.22,6.33-9.33,6.33-15.31s-2.11-11.09-6.33-15.31c-4.22-4.22-9.33-6.33-15.31-6.33s-11.09,2.11-15.31,6.33c-4.22,4.22-6.33,9.33-6.33,15.31s2.11,11.09,6.33,15.31c4.22,4.22,9.33,6.33,15.31,6.33Z"/>
      <path class="cls-3" d="m785.73,1009h-7.21v14.43h-9.62v-57.72h21.64c5.99,0,11.09,2.11,15.31,6.33,4.22,4.22,6.33,9.33,6.33,15.31s-2.1,11.09-6.31,15.3c-2.66,2.66-5.65,4.48-8.98,5.49l15.3,15.3h-12.02l-14.43-14.43Zm-7.21-33.67v24.05h12.02c3.33,0,6.17-1.17,8.51-3.51s3.51-5.18,3.51-8.51-1.17-6.17-3.51-8.51c-2.34-2.34-5.18-3.51-8.51-3.51h-12.02Z"/>
      <path class="cls-3" d="m850.47,975.33v48.1h-9.62v-48.1h-14.43v-9.62h38.48v9.62h-14.43Z"/>
    </g>
    <g>
      <path class="cls-2" d="m55.34,859.72l26.36,10.12v66.13h-49.66s7.06-27.07,7.06-27.07v-127.79s-26.36-20.24-26.36-20.24h68.96v71.78s53.89,0,53.89,0v-51.54s-26.36-20.24-26.36-20.24h68.96v148.03s7.06,27.07,7.06,27.07h-49.66v-76.25s-80.25,0-80.25,0Z"/>
      <path class="cls-2" d="m188.06,760.87h145.68v37.66s-17.89-10.59-17.89-10.59h-85.19s26.36,10.12,26.36,10.12v34.6s53.89,0,53.89,0l-9.41,27.07h-44.48s0,49.19,0,49.19h56.48s14.35-27.07,14.35-27.07l14.12,54.13h-134.62s7.06-27.07,7.06-27.07v-127.79s-26.36-20.24-26.36-20.24Z"/>
      <path class="cls-2" d="m340.32,760.87h68.96v148.03s56.48,0,56.48,0l14.35-27.07,14.12,54.13h-134.62s7.06-27.07,7.06-27.07v-127.79s-26.36-20.24-26.36-20.24Z"/>
      <path class="cls-2" d="m488.81,760.87h68.96v148.03s56.48,0,56.48,0l14.35-27.07,14.12,54.13h-134.62s7.06-27.07,7.06-27.07v-127.79s-26.36-20.24-26.36-20.24Z"/>
      <path class="cls-2" d="m637.3,760.87h68.96v148.03s7.06,27.07,7.06,27.07h-56.72s7.06-27.07,7.06-27.07v-127.79s-26.36-20.24-26.36-20.24Z"/>
      <path class="cls-2" d="m773.09,767.46l-17.89-9.42h56.95c42.36,0,84.49,30.12,84.49,90.14,0,60.25-42.36,90.61-84.49,90.61-42.36,0-84.49-30.36-84.49-90.61,0-40.72,19.53-67.55,45.42-80.72Zm39.07,20.24c-19.06,0-38.13,20.24-38.13,60.95,0,40.48,19.06,60.48,38.13,60.48,19.06,0,38.13-20,38.13-60.48,0-40.71-19.06-60.95-38.13-60.95Z"/>
      <path class="cls-2" d="m954.29,856.66v79.31h-40.25s7.06-27.07,7.06-27.07v-127.79s-26.36-20.24-26.36-20.24h56.95s88.26,120.5,88.26,120.5l-12.94-34.36v-65.9s-26.36-20.24-26.36-20.24h59.54v148.03s7.06,27.07,7.06,27.07h-40.25s-85.43-113.44-85.43-113.44l12.71,34.13Z"/>
    </g>
  </g>
</svg>