<?xml version="1.0" encoding="UTF-8"?>
<svg id="Layer_1" data-name="Layer 1" xmlns="http://www.w3.org/2000/svg" viewBox="0 0 1080 1080">
  <defs>
    <style>
      .cls-1 {
        fill: #3d3d3d;
      }

      .cls-1, .cls-2, .cls-3 {
        stroke-width: 0px;
      }

      .cls-2 {
        fill: #222;
      }

      .cls-3 {
        fill: #ba0100;
      }
    </style>
  </defs>
  <g>
    <g>
      <path class="cls-2" d="m756.61,433.52c-29.9-20.18-22.61-57.74-5.11-72.69,17.5-14.95,21.15-52.87-41.93-106.11-78.04-61.63-171.02-61.14-171.02-61.14,0,0-92.99-.49-171.02,61.14-63.09,53.24-59.44,91.16-41.93,106.11,17.5,14.95,24.8,52.51-5.11,72.69-26.16,17.66-32.97,46.48-20.58,69.04,3.23,5.89,7.9,10.93,13.29,14.94,12.73,9.49,20.67,8.64,20.67,8.64,0,0-18.12-52.63,22.37-52.63,67.46,0,137.84,125.08,154.61,8.39,0,0,18.23,111.58-42.3,133.46-54.86,19.83-139.66-43.3-155.9,6.3-3.33,10.17-2.3,21.25,1.8,31.13,15.28,36.76,36.68,59.2,36.68,59.2,0,0,22.61-14.22,47.65-14.22,0,0,17.75,106.48,50.32,168.71,0,0,12.15-53,34.52-74.39,0,0,35.49,185.73,54.94,244.07,19.45-58.34,54.94-244.07,54.94-244.07,22.37,21.39,34.52,74.39,34.52,74.39,32.58-62.23,50.32-168.71,50.32-168.71,25.04,0,47.65,14.22,47.65,14.22,0,0,21.4-22.44,36.68-59.2,4.1-9.88,5.13-20.96,1.8-31.13-16.23-49.6-101.04,13.53-155.9-6.3-60.53-21.88-42.3-133.46-42.3-133.46,16.77,116.69,87.15-8.39,154.61-8.39,40.48,0,22.37,52.63,22.37,52.63,0,0,7.93.85,20.67-8.64,5.39-4.01,10.05-9.05,13.29-14.94,12.39-22.56,5.58-51.39-20.58-69.04Zm-178.68,273.49c-40.84-39.87-80.22,0-80.22,0-4.01-68.8,40.11-79.62,40.11-79.62,43.03,13.86,40.11,79.62,40.11,79.62Z"/>
      <path class="cls-2" d="m251.69,497.94l73.9,83.14-23.22,4.28c-26.74,4.93-42.9,32.41-34.22,58.17l40.42,119.88,48.13-23.34s13.37,49.96,29.05,87.15h-60.9s-117.42-83.26-142.7-212.35l69.53-116.93Z"/>
      <path class="cls-2" d="m827.47,497.94l-73.9,83.14,23.22,4.28c26.74,4.93,42.9,32.41,34.22,58.17l-40.42,119.88-48.13-23.34s-13.37,49.96-29.05,87.15h60.9s117.42-83.26,142.7-212.35l-69.53-116.93Z"/>
    </g>
    <path class="cls-1" d="m675.91,864.38c-20.05,8.16-41,14.57-62.66,19.09l-14.65,64.52c74.18-10.51,142.21-40.07,199.01-83.61h-121.71Z"/>
    <path class="cls-3" d="m141.23,688.74c21.47,52.11,52.89,99.08,91.92,138.48H56.24l84.99-138.48Z"/>
    <path class="cls-3" d="m1023.76,827.22h-180.75c39.77-40.15,71.64-88.12,93.11-141.42l87.63,141.42Z"/>
    <path class="cls-1" d="m797.61,864.38c-56.81,43.54-124.84,73.1-199.01,83.61l14.65-64.52c21.66-4.51,42.61-10.92,62.66-19.09h121.71Z"/>
    <path class="cls-3" d="m612.05,165.02c-23.89-4.85-48.64-7.42-73.95-7.42s-50.96,2.65-75.22,7.68l75.67-121.44,73.51,121.18Z"/>
  </g>
  <path class="cls-2" d="m622.71,105.94l39.74,74.29c141.13,50.92,241.96,186.04,241.96,344.69,0,10.18-.41,20.24-1.27,30.19l47.38,81.93c9.73-35.71,14.91-73.32,14.91-112.12,0-207.07-147.24-379.69-342.71-418.98ZM110.74,524.91c0,39.74,5.4,78.17,15.58,114.66l45.44-81.82,1.38-1.08c-.93-10.47-1.38-21.06-1.38-31.76,0-157.15,98.93-291.16,237.89-343.2l47.79-76.53c-197.45,37.65-346.7,211.28-346.7,419.72Zm352.81,358.7c-21.88-4.47-43.02-10.96-63.29-19.23h-121.74c56.51,43.31,124.16,72.8,197.86,83.42l-12.82-64.19Zm212.36-19.23c-20.05,8.16-41,14.57-62.66,19.09l-14.65,64.52c74.18-10.51,142.21-40.07,199.01-83.61h-121.71Z"/>
</svg>