<?xml version="1.0" encoding="UTF-8"?>
<svg id="Layer_1" data-name="Layer 1" xmlns="http://www.w3.org/2000/svg" viewBox="0 0 1300 350">
  <defs>
    <style>
      .cls-1 {
        fill: #222;
      }

      .cls-1, .cls-2 {
        stroke-width: 0px;
      }

      .cls-2 {
        fill: #ba0100;
      }
    </style>
  </defs>
  <g>
    <path class="cls-2" d="m383.11,287.94v24.84h-8.77v-57l26.31,43.85,26.31-43.85v57h-8.77v-24.84l-17.54,29.22-17.54-29.22Z"/>
    <path class="cls-2" d="m475.14,314.97c-7.88,0-14.6-2.78-20.16-8.34-5.56-5.56-8.34-12.28-8.34-20.16s2.78-14.6,8.34-20.16c5.56-5.56,12.28-8.34,20.16-8.34s14.6,2.78,20.16,8.34c5.56,5.56,8.34,12.28,8.34,20.16s-2.78,14.6-8.34,20.16c-5.56,5.56-12.28,8.34-20.16,8.34Zm0-8.77c5.46,0,10.11-1.92,13.96-5.77,3.85-3.85,5.77-8.5,5.77-13.96s-1.92-10.11-5.77-13.96c-3.85-3.85-8.5-5.77-13.96-5.77s-10.11,1.92-13.96,5.77c-3.85,3.85-5.77,8.5-5.77,13.96s1.92,10.11,5.77,13.96c3.85,3.85,8.5,5.77,13.96,5.77Z"/>
    <path class="cls-2" d="m535.25,268.93v43.85h-8.77v-43.85h-13.15v-8.77h35.08v8.77h-13.15Z"/>
    <path class="cls-2" d="m587.37,314.97c-7.88,0-14.6-2.78-20.16-8.34-5.56-5.56-8.34-12.28-8.34-20.16s2.78-14.6,8.34-20.16c5.56-5.56,12.28-8.34,20.16-8.34s14.6,2.78,20.16,8.34c5.56,5.56,8.34,12.28,8.34,20.16s-2.78,14.6-8.34,20.16c-5.56,5.56-12.28,8.34-20.16,8.34Zm0-8.77c5.46,0,10.11-1.92,13.96-5.77,3.85-3.85,5.77-8.5,5.77-13.96s-1.92-10.11-5.77-13.96c-3.85-3.85-8.5-5.77-13.96-5.77s-10.11,1.92-13.96,5.77c-3.85,3.85-5.77,8.5-5.77,13.96s1.92,10.11,5.77,13.96c3.85,3.85,8.5,5.77,13.96,5.77Z"/>
    <path class="cls-2" d="m650.8,299.62h-6.58v13.15h-8.77v-52.62h19.73c5.46,0,10.11,1.92,13.96,5.77,3.85,3.85,5.77,8.5,5.77,13.96s-1.92,10.11-5.75,13.94c-2.42,2.42-5.15,4.09-8.19,5l13.94,13.94h-10.96l-13.16-13.15Zm-6.58-30.69v21.92h10.96c3.04,0,5.63-1.07,7.76-3.2,2.14-2.14,3.2-4.72,3.2-7.76s-1.07-5.62-3.2-7.76c-2.14-2.14-4.72-3.2-7.76-3.2h-10.96Z"/>
    <path class="cls-2" d="m710.63,281.43l1.92,1.03c2.81,1.51,5.31,3.1,7.5,4.78,2.19,1.68,3.88,3.58,5.07,5.7.98,1.78,1.47,3.8,1.47,6.06,0,.48-.02.97-.07,1.47-.3,3.22-1.41,5.95-3.34,8.19-1.93,2.24-4.44,3.88-7.52,4.93-2.33.8-4.84,1.2-7.54,1.2-.87,0-1.76-.05-2.67-.14-4.52-.39-8.34-1.69-11.44-3.91-1.21-.84-2.27-1.78-3.18-2.81l5.34-7.16c.87,1.1,1.91,2.04,3.12,2.84,2.06,1.35,4.41,2.15,7.06,2.4.59.05,1.17.07,1.71.07,2.35,0,4.52-.52,6.51-1.56,1.99-1.04,3.07-2.6,3.25-4.68.02-.18.03-.35.03-.51,0-1.1-.34-2.15-1.01-3.17-.67-1.02-1.63-2.02-2.88-3.01s-2.63-1.94-4.16-2.83c-1.37-.8-2.74-1.56-4.11-2.29l-.55-.34c-1.58-.82-3.12-1.72-4.64-2.69-1.52-.97-2.89-2.08-4.09-3.32-1.21-1.24-2.15-2.68-2.81-4.3-.55-1.26-.82-2.68-.82-4.28,0-.43.02-.88.07-1.34.27-2.99,1.3-5.56,3.08-7.71,1.78-2.15,4.08-3.75,6.88-4.8,2.17-.82,4.5-1.23,6.99-1.23.69,0,1.39.03,2.13.1,3.93.34,7.2,1.51,9.83,3.49.8.62,1.52,1.28,2.16,1.99l-5.14,6.92c-.62-.75-1.31-1.42-2.09-1.99-1.62-1.14-3.44-1.8-5.45-1.99-.41-.05-.81-.07-1.2-.07-2.01,0-3.88.55-5.62,1.66-1.74,1.11-2.69,2.63-2.88,4.57-.02.16-.03.33-.03.51,0,1.05.34,2.01,1.03,2.88.69.87,1.71,1.71,3.07,2.53,1.36.82,2.93,1.69,4.71,2.6l.31.17Z"/>
    <path class="cls-2" d="m754.19,299.62v13.15h-8.77v-52.62h19.73c5.46,0,10.11,1.92,13.96,5.77,3.85,3.85,5.77,8.5,5.77,13.96s-1.92,10.11-5.77,13.96c-3.85,3.85-8.5,5.77-13.96,5.77h-10.96Zm0-30.69v21.92h10.96c3.04,0,5.63-1.07,7.76-3.2,2.14-2.14,3.2-4.72,3.2-7.76s-1.07-5.62-3.2-7.76c-2.14-2.14-4.72-3.2-7.76-3.2h-10.96Z"/>
    <path class="cls-2" d="m831.05,314.97c-7.88,0-14.6-2.78-20.16-8.34-5.56-5.56-8.34-12.28-8.34-20.16s2.78-14.6,8.34-20.16c5.56-5.56,12.28-8.34,20.16-8.34s14.6,2.78,20.16,8.34c5.56,5.56,8.34,12.28,8.34,20.16s-2.78,14.6-8.34,20.16c-5.56,5.56-12.28,8.34-20.16,8.34Zm0-8.77c5.46,0,10.11-1.92,13.96-5.77,3.85-3.85,5.77-8.5,5.77-13.96s-1.92-10.11-5.77-13.96c-3.85-3.85-8.5-5.77-13.96-5.77s-10.11,1.92-13.96,5.77c-3.85,3.85-5.77,8.5-5.77,13.96s1.92,10.11,5.77,13.96c3.85,3.85,8.5,5.77,13.96,5.77Z"/>
    <path class="cls-2" d="m894.47,299.62h-6.58v13.15h-8.77v-52.62h19.73c5.46,0,10.11,1.92,13.96,5.77,3.85,3.85,5.77,8.5,5.77,13.96s-1.92,10.11-5.75,13.94c-2.42,2.42-5.15,4.09-8.19,5l13.94,13.94h-10.96l-13.16-13.15Zm-6.58-30.69v21.92h10.96c3.04,0,5.63-1.07,7.76-3.2,2.14-2.14,3.2-4.72,3.2-7.76s-1.07-5.62-3.2-7.76c-2.14-2.14-4.72-3.2-7.76-3.2h-10.96Z"/>
    <path class="cls-2" d="m953.49,268.93v43.85h-8.77v-43.85h-13.15v-8.77h35.08v8.77h-13.15Z"/>
  </g>
  <g>
    <g>
      <g>
        <path class="cls-1" d="m1208.13,140.55c-9.67-6.53-7.31-18.68-1.65-23.51,5.66-4.84,6.84-17.11-13.57-34.33-25.24-19.94-55.33-19.78-55.33-19.78,0,0-30.08-.16-55.33,19.78-20.41,17.22-19.23,29.49-13.57,34.33,5.66,4.84,8.02,16.99-1.65,23.51-8.46,5.71-10.67,15.04-6.66,22.34,1.05,1.91,2.56,3.53,4.3,4.83,4.12,3.07,6.69,2.79,6.69,2.79,0,0-5.86-17.03,7.24-17.03,21.82,0,44.59,40.46,50.02,2.71,0,0,5.9,36.1-13.68,43.18-17.75,6.41-45.18-14.01-50.43,2.04-1.08,3.29-.75,6.88.58,10.07,4.94,11.89,11.87,19.15,11.87,19.15,0,0,7.31-4.6,15.41-4.6,0,0,5.74,34.45,16.28,54.58,0,0,3.93-17.14,11.17-24.07,0,0,11.48,60.08,17.77,78.96,6.29-18.87,17.77-78.96,17.77-78.96,7.24,6.92,11.17,24.07,11.17,24.07,10.54-20.13,16.28-54.58,16.28-54.58,8.1,0,15.41,4.6,15.41,4.6,0,0,6.92-7.26,11.87-19.15,1.33-3.2,1.66-6.78.58-10.07-5.25-16.05-32.69,4.38-50.43-2.04-19.58-7.08-13.68-43.18-13.68-43.18,5.43,37.75,28.19-2.71,50.02-2.71,13.1,0,7.24,17.03,7.24,17.03,0,0,2.57.27,6.69-2.79,1.74-1.3,3.25-2.93,4.3-4.83,4.01-7.3,1.81-16.62-6.66-22.34Zm-57.8,88.47c-13.21-12.9-25.95,0-25.95,0-1.3-22.26,12.98-25.76,12.98-25.76,13.92,4.48,12.98,25.76,12.98,25.76Z"/>
        <path class="cls-1" d="m1044.79,161.39l23.91,26.9-7.51,1.38c-8.65,1.59-13.88,10.48-11.07,18.82l13.08,38.78,15.57-7.55s4.33,16.16,9.4,28.19h-19.7s-37.99-26.94-46.16-68.7l22.49-37.83Z"/>
        <path class="cls-1" d="m1231.06,161.39l-23.91,26.9,7.51,1.38c8.65,1.59,13.88,10.48,11.07,18.82l-13.08,38.78-15.57-7.55s-4.33,16.16-9.4,28.19h19.7s37.99-26.94,46.16-68.7l-22.49-37.83Z"/>
      </g>
      <path class="cls-1" d="m1182.03,279.94c-6.49,2.64-13.26,4.72-20.27,6.17l-4.74,20.87c24-3.4,46-12.96,64.38-27.05h-39.37Z"/>
      <path class="cls-2" d="m1009.06,223.12c6.95,16.86,17.11,32.05,29.74,44.8h-57.23l27.49-44.8Z"/>
      <path class="cls-2" d="m1294.56,267.92h-58.47c12.87-12.99,23.18-28.51,30.12-45.75l28.35,45.75Z"/>
      <path class="cls-1" d="m1221.4,279.94c-18.38,14.08-40.39,23.65-64.38,27.05l4.74-20.87c7.01-1.46,13.78-3.53,20.27-6.17h39.37Z"/>
      <path class="cls-2" d="m1161.37,53.69c-7.73-1.57-15.74-2.4-23.92-2.4s-16.48.86-24.33,2.48l24.48-39.29,23.78,39.2Z"/>
    </g>
    <path class="cls-1" d="m1164.82,34.58l12.85,24.03c45.65,16.47,78.27,60.19,78.27,111.51,0,3.29-.13,6.55-.41,9.77l15.33,26.51c3.15-11.55,4.82-23.72,4.82-36.27,0-66.99-47.63-122.83-110.87-135.54Zm-165.63,135.54c0,12.85,1.75,25.29,5.04,37.09l14.7-26.47.45-.35c-.3-3.39-.45-6.81-.45-10.27,0-50.84,32-94.19,76.96-111.02l15.46-24.76c-63.87,12.18-112.16,68.35-112.16,135.78Zm114.14,116.04c-7.08-1.45-13.92-3.55-20.48-6.22h-39.38c18.28,14.01,40.17,23.55,64.01,26.99l-4.15-20.77Zm68.7-6.22c-6.49,2.64-13.26,4.72-20.27,6.17l-4.74,20.87c24-3.4,46-12.96,64.38-27.05h-39.37Z"/>
  </g>
  <g>
    <path class="cls-1" d="m44.27,163.55l24.03,9.22v60.28H23.03s6.44-24.67,6.44-24.67v-116.48s-24.03-18.45-24.03-18.45h62.85v65.43s49.13,0,49.13,0v-46.98s-24.03-18.45-24.03-18.45h62.85v134.93s6.44,24.67,6.44,24.67h-45.26v-69.5s-73.15,0-73.15,0Z"/>
    <path class="cls-1" d="m165.25,73.46h132.79v34.32s-16.3-9.65-16.3-9.65h-77.65s24.03,9.22,24.03,9.22v31.53s49.13,0,49.13,0l-8.58,24.67h-40.54s0,44.83,0,44.83h51.49s13.08-24.67,13.08-24.67l12.87,49.34h-122.71s6.44-24.67,6.44-24.67v-116.48s-24.03-18.45-24.03-18.45Z"/>
    <path class="cls-1" d="m304.03,73.46h62.85v134.93s51.49,0,51.49,0l13.08-24.67,12.87,49.34h-122.71s6.44-24.67,6.44-24.67v-116.48s-24.03-18.45-24.03-18.45Z"/>
    <path class="cls-1" d="m439.38,73.46h62.85v134.93s51.49,0,51.49,0l13.08-24.67,12.87,49.34h-122.71s6.44-24.67,6.44-24.67v-116.48s-24.03-18.45-24.03-18.45Z"/>
    <path class="cls-1" d="m574.73,73.46h62.85v134.93s6.43,24.67,6.43,24.67h-51.7s6.44-24.67,6.44-24.67v-116.48s-24.03-18.45-24.03-18.45Z"/>
    <path class="cls-1" d="m698.5,79.46l-16.3-8.58h51.91c38.61,0,77.01,27.46,77.01,82.16,0,54.92-38.61,82.59-77.01,82.59-38.61,0-77.01-27.67-77.01-82.59,0-37.11,17.81-61.57,41.4-73.58Zm35.61,18.45c-17.38,0-34.75,18.45-34.75,55.56,0,36.9,17.38,55.13,34.75,55.13,17.38,0,34.75-18.23,34.75-55.13,0-37.11-17.38-55.56-34.75-55.56Z"/>
    <path class="cls-1" d="m863.67,160.77v72.29h-36.68s6.44-24.67,6.44-24.67v-116.48s-24.03-18.45-24.03-18.45h51.91s80.44,109.83,80.44,109.83l-11.8-31.32v-60.07s-24.03-18.45-24.03-18.45h54.27v134.93s6.44,24.67,6.44,24.67h-36.68s-77.87-103.4-77.87-103.4l11.58,31.11Z"/>
  </g>
</svg>